<?xml version="1.0" encoding="UTF-8"?>
<svg id="Layer_2" data-name="Layer 2" xmlns="http://www.w3.org/2000/svg" viewBox="0 0 885.06 1000.01">
  <defs>
    <style>
      .cls-1 {
        fill: #eff5ff;
      }

      .cls-2 {
        fill: #96b9ff;
      }

      .cls-3 {
        fill: #b0caff;
      }

      .cls-4 {
        fill: #dce8ff;
      }

      .cls-5 {
        fill: #1563ff;
      }

      .cls-6 {
        fill: #508aff;
      }
    </style>
  </defs>
  <g id="Layer_1-2" data-name="Layer 1">
    <path class="cls-5" d="m0,713.8v-427.6c-.04-25.89,13.78-49.81,36.22-62.72L406.41,9.68c22.36-12.91,49.9-12.91,72.26,0l371.05,213.8c22.07,13.16,35.52,37.02,35.34,62.72v427.6c.18,25.7-13.27,49.56-35.34,62.72l-371,213.8c-22.36,12.91-49.9,12.91-72.26,0L36.24,777.41C13.52,764.35-.35,740.01,0,713.8Z"/>
    <path class="cls-4" d="m786.29,268.71L483.44,93.79c-12.87-7.53-29.41-3.21-36.94,9.66-2.46,4.2-3.73,8.98-3.7,13.84v167.85l158,91c17.7,10.18,28.62,29.05,28.62,49.47v181.82l145.39,83.93c12.93,7.43,29.43,2.98,36.87-9.95,2.37-4.12,3.61-8.8,3.59-13.55v-349.86c-.1-20.44-11.16-39.26-28.98-49.29Z"/>
    <path class="cls-6" d="m256.75,574.39v-181.82l-145.42-83.93c-12.87-7.53-29.41-3.21-36.94,9.66-2.46,4.2-3.73,8.98-3.7,13.84v349.68c0,20.43,10.92,39.29,28.63,49.47l302.85,174.92c12.87,7.53,29.41,3.2,36.94-9.67,2.33-3.99,3.6-8.5,3.69-13.12v-167.86l-157.6-91c-17.89-10.32-28.77-29.52-28.45-50.17Z"/>
    <path class="cls-2" d="m442.8,467v-181.86l-145.41-83.92c-12.87-7.53-29.41-3.21-36.94,9.66-2.46,4.2-3.73,8.98-3.7,13.84v167.85l157.43,91c17.72,10.15,28.64,29.01,28.62,49.43v181.86l145.42,83.92c12.87,7.53,29.41,3.21,36.94-9.66,2.46-4.2,3.73-8.98,3.7-13.84v-167.85l-157.61-91c-17.68-10.17-28.54-29.04-28.45-49.43Z"/>
    <path class="cls-1" d="m600.77,376.14l-157.44-91v181.86c-.1,20.41,10.76,39.3,28.45,49.47l157.61,91v-181.86c0-20.42-10.92-39.29-28.62-49.47Z"/>
    <path class="cls-3" d="m414.18,483.57l-157.43-91v181.82c-.07,20.4,10.78,39.27,28.45,49.47l157.6,91v-181.86c.02-20.42-10.9-39.28-28.62-49.43Z"/>
  </g>
</svg>